<svg width="200" height="118" viewBox="0 0 200 118" fill="none" xmlns="http://www.w3.org/2000/svg">
<path d="M26.4286 14.2347C28.3036 6.88027 36.4496 3.09184 43.282 6.39677L100.18 33.9194C102.68 35.1286 105.522 35.4334 108.221 34.7819L179.761 17.5162C188.748 15.3471 196.709 23.7288 194.081 32.5928L172.247 106.224C170.344 112.642 163.557 116.262 157.166 114.267L91.2956 93.7037C89.0553 93.0043 86.6591 92.9772 84.4036 93.6258L20.1148 112.111C11.2061 114.673 2.88065 106.596 5.17075 97.6137L26.4286 14.2347Z" fill="#19AB6D"/>
<path d="M33.9688 61.7344V69H27.7432V49.0049H36.2832C38.4121 49.0049 40.0283 49.249 41.1318 49.7373C42.2451 50.2256 43.124 50.9727 43.7686 51.9785C44.4229 52.9844 44.75 54.1123 44.75 55.3623C44.75 57.2666 44.0859 58.8047 42.7578 59.9766C41.4297 61.1484 39.6572 61.7344 37.4404 61.7344H33.9688ZM33.8809 57.4424H35.9316C37.7383 57.4424 38.6416 56.7783 38.6416 55.4502C38.6416 54.2002 37.8066 53.5752 36.1367 53.5752H33.8809V57.4424ZM56.791 69L55.6631 65.0596H50.3018L49.1006 69H44.1201L50.3018 49.0049H56.791L63.0459 69H56.791ZM51.3418 60.6943H54.5938L52.9678 54.8936L51.3418 60.6943ZM81.9863 69H76.9912L71.5127 60.167C70.8096 59.0342 70.1016 57.6572 69.3887 56.0361C69.7109 57.3252 69.8721 58.4189 69.8721 59.3174V69H64.8916V49.0049H70.6924L75.3506 56.3291C76.2783 57.7842 76.9814 59.0635 77.46 60.167C77.1475 58.458 76.9912 56.71 76.9912 54.9229V49.0049H81.9863V69ZM93.7051 53.7949V69H87.8896V53.7949H83.7441V49.0049H97.8506V53.7949H93.7051ZM116.571 49.0049V69H110.434V61.2217H105.746V69H99.6084V49.0049H105.746V56.3584H110.434V49.0049H116.571ZM135.102 64.2246V69H120.058V49.0049H135.102V53.6191H126.078V56.5195H133.373V60.958H126.078V64.2246H135.102ZM155.346 69H148.534L145.619 61.3535H143.686V69H137.548V49.0049H147.992C150.297 49.0049 152.084 49.5469 153.354 50.6309C154.633 51.7051 155.272 53.126 155.272 54.8936C155.272 56.0459 155.038 57.0664 154.569 57.9551C154.101 58.834 153.153 59.6104 151.728 60.2842L155.346 69ZM143.686 57.0762H146.308C147.079 57.0762 147.699 56.915 148.168 56.5928C148.637 56.2705 148.871 55.7969 148.871 55.1719C148.871 53.8926 148.085 53.2529 146.513 53.2529H143.686V57.0762ZM156.195 63.2139L161.894 62.1885C162.372 63.7998 163.603 64.6055 165.585 64.6055C167.128 64.6055 167.899 64.1953 167.899 63.375C167.899 62.9453 167.719 62.6133 167.357 62.3789C167.006 62.1348 166.371 61.9199 165.453 61.7344C161.947 61.0605 159.696 60.1816 158.7 59.0977C157.704 58.0137 157.206 56.7393 157.206 55.2744C157.206 53.3896 157.919 51.8223 159.345 50.5723C160.78 49.3223 162.841 48.6973 165.526 48.6973C169.599 48.6973 172.289 50.333 173.598 53.6045L168.515 55.1426C167.987 53.8047 166.918 53.1357 165.307 53.1357C163.969 53.1357 163.3 53.5508 163.3 54.3809C163.3 54.752 163.451 55.04 163.754 55.2451C164.057 55.4502 164.643 55.6455 165.512 55.8311C167.904 56.3389 169.604 56.7881 170.609 57.1787C171.615 57.5693 172.455 58.2383 173.129 59.1855C173.803 60.123 174.14 61.2314 174.14 62.5107C174.14 64.5322 173.319 66.1729 171.679 67.4326C170.038 68.6826 167.885 69.3076 165.219 69.3076C160.346 69.3076 157.338 67.2764 156.195 63.2139Z" fill="#FFF8EF"/>
</svg>
